<svg xmlns="http://www.w3.org/2000/svg" width="731.67004" height="688.57686" viewBox="0 0 731.67004 688.57686" xmlns:xlink="http://www.w3.org/1999/xlink"><g><path d="M549.19557,654.62891c-1.27295-10.4375-6.22327-20-10.32214-29.68359-33.40552-78.92188-11.474-169.04102-15.91809-254.62695-3.89337-74.97949-28.3399-147.1709-52.56232-218.2373-8.45886-24.81738-17.33527-50.31445-31.70941-71.93359,1.53998-5.4541,2.38177-11.20117,2.38177-17.14746,0-34.79395-28.20605-63-63-63-32.6806,0-59.54504,24.88477-62.68848,56.73828-18.65991,35.66699-35.50134,72.28516-50.41949,109.6709-14.86957,37.26465-27.98047,76.05078-28.9328,116.16113-.74847,31.52637,6.04871,62.7373,7.61963,94.23438,4.32623,86.73926-30.65253,176.2959-3.2738,258.71484,5.72888,17.24512,15.03406,34.59473,31.039,43.20117,13.07874,7.0332,28.62866,7.19531,43.47858,7.18945,27.8183-.01172,55.63654-.02246,83.45483-.0332,20.20276-.00781,40.40546-.0166,60.60822-.02441l58.86346-.02344c6.92487-.00293,14.22174-.10156,20.2002-3.5957,9.07843-5.30664,12.4538-17.16602,11.18085-27.60449Z" fill="#e6e6e6"/><ellipse cx="404.64754" cy="52.67023" rx="4.51235" ry="10.11387" transform="translate(-2.98974 34.07904) rotate(-4.80482)" fill="#3f3d56"/><ellipse cx="382.77841" cy="52.2741" rx="4.51235" ry="10.11387" transform="translate(-3.03341 32.24585) rotate(-4.80482)" fill="#3f3d56"/><g><g><path d="M400.93509,304.01695c-2.5085-3.65608-7.54043-4.65311-11.94853-4.17546-4.4081,.47766-8.64535,2.09705-13.06752,2.41935-3.6447,.26563-7.29428-.35875-10.94858-.38008-4.75147-.02774-9.50631,.98025-13.83783,2.9335-14.18716,6.39755-22.25988,22.37733-23.03882,37.92073-.77895,15.5434,4.56333,30.74067,11.02086,44.90063,3.73204,8.18356,8.37135,16.70873,16.41798,20.7275,6.39753,3.19515,13.89384,2.99074,21.03956,2.71513,10.63533-.4102,21.27067-.8204,31.906-1.23059,5.1278-.19778,10.2556-.39555,15.3834-.59333,7.31584-.28217,14.70033-.57416,21.78247-2.4301,16.43673-4.30738,30.25749-17.48687,35.34033-33.70058,5.21924-16.64881,1.36989-35.17394-7.15767-50.39576-5.22061-9.31887-12.8084-18.12702-23.10615-20.96469-5.53882-1.52628-11.39685-1.19723-17.13198-.85622-10.45055,.62138-20.9011,1.24276-31.35166,1.86414" fill="#ff6363"/><g><path d="M398.28408,311.08084s-18.46981,4.81821-7.22732,4.81821,24.6791,0,24.38508-2.40911c-.29402-2.40911-19.56687-40.95479-21.97597-40.95479-2.40911,0-16.0607,2.40911-10.43946,8.03035,5.62125,5.62125,15.25767,30.51534,15.25767,30.51534Z" fill="#3f3d56"/><g><path d="M402.76261,405.83077c-18.22068-13.36235-8.52172-80.76211-8.09959-83.62433l1.19613,.17594c-.10214,.6943-10.01836,69.53934,7.61901,82.47306l-.71556,.97533Z" fill="#3f3d56"/><path d="M370.84778,399.88552c-14.18122-26.472-8.60674-47.63638-1.43288-60.7301,7.7613-14.16646,19.03779-22.19107,19.15055-22.27077l.69548,.9895c-.11099,.07793-11.18675,7.96852-18.80812,21.90296-7.01386,12.82391-12.45373,33.56261,1.46122,59.53692l-1.06625,.5715Z" fill="#3f3d56"/><path d="M430.82277,405.53616l-1.14654-.38612c13.27733-39.46181-16.18678-86.37201-16.48552-86.84078l1.01902-.65061c.07557,.11867,7.62432,12.04223,13.40899,28.73084,5.34836,15.4299,10.24567,38.21668,3.20406,59.14667Z" fill="#3f3d56"/><path d="M465.46639,397.38993l-1.20676-.06849c2.05811-36.24536-8.75434-56.72783-18.18762-67.52788-10.18426-11.65965-20.94298-14.82475-21.05043-14.85545l.33062-1.16307c.45342,.1293,11.21273,3.29616,21.63079,15.22326,9.58088,10.96949,20.56513,31.73889,18.48341,68.39162Z" fill="#3f3d56"/><path d="M341.77097,365.87303c-3.11727-14.30461-1.35613-26.30374,5.23501-35.66382,10.85613-15.41632,31.34628-18.23899,31.55174-18.26555l.15586,1.1985c-.20073,.02657-20.18138,2.79019-30.7246,17.77139-6.38332,9.07079-8.07775,20.74638-5.03605,34.70207l-1.18197,.25741Z" fill="#3f3d56"/><path d="M387.48858,311.29422c-.21845-.08325-21.99093-8.24306-32.26729-.09151l-.75098-.94699c10.81539-8.57899,32.53061-.44161,33.44926-.09151l-.43099,1.13001Z" fill="#3f3d56"/><path d="M407.05063,309.54961c-.00413-.08206-.29874-8.26549,9.00053-11.13893l.3566,1.15481c-8.38003,2.59005-8.16276,9.62812-8.14918,9.92626l-1.20794,.05786Z" fill="#3f3d56"/><path d="M416.71476,314.71732l-.9706-.72087c.1104-.14819,11.22217-14.80054,27.1728-9.27978l-.39556,1.143c-15.10518-5.22969-25.70154,8.71596-25.80663,8.85765Z" fill="#3f3d56"/></g></g></g><g><path d="M470.10317,453.53516h-134.0166c-10.37549,0-19.30908-7.39844-21.24219-17.59277l-13.98877-73.75781c-1.20386-6.34766,.46948-12.84277,4.59082-17.81934,4.12109-4.97656,10.19019-7.83008,16.65137-7.83008h161.99414c6.46118,0,12.53027,2.85352,16.65137,7.83008,4.12134,4.97656,5.79468,11.47168,4.59082,17.81934l-13.98877,73.75781c-1.93311,10.19434-10.8667,17.59277-21.24219,17.59277Z" fill="#3f3d56"/><path d="M502.07484,363.24805c-33.24658-79.58984-66.54834-119.94531-98.97998-119.94531s-65.7334,40.35547-98.97998,119.94531l-5.53613-2.3125c16.99463-40.68457,34.26807-71.6748,51.33984-92.10938,17.47559-20.91797,35.3667-31.52344,53.17627-31.52344s35.70068,10.60547,53.17627,31.52344c17.07178,20.43457,34.34521,51.4248,51.33984,92.10938l-5.53613,2.3125Z" fill="#3f3d56"/></g></g><path id="uuid-b99b4010-36d8-4557-bb45-b7f75ada825b-55" d="M368.2428,229.68191c13.34068-7.73536,28.14564-7.12206,33.06707,1.36884,4.92144,8.4909-1.90415,21.64192-15.25062,29.37825-5.28898,3.16347-11.25864,5.01435-17.40955,5.39772l-56.93891,32.06118-14.47584-27.04045,57.66856-28.73581c3.38996-5.14912,7.96401-9.41131,13.33929-12.42974Z" fill="#ffb6b6"/><g><path d="M552.43872,576.51319c-2.62223-3.82183-7.88228-4.86407-12.49023-4.36476-4.60795,.49931-9.03729,2.19212-13.65995,2.52903-3.80993,.27767-7.62498-.37501-11.44495-.39731-4.96688-.02899-9.93729,1.02469-14.46518,3.0665-14.83035,6.68759-23.26905,23.39183-24.08331,39.63991-.81426,16.24808,4.77022,32.13433,11.52051,46.93624,3.90124,8.55457,8.75088,17.46624,17.16231,21.66721,6.68757,3.34,14.52373,3.12633,21.99341,2.83823,11.1175-.42879,22.23499-.85759,33.35249-1.28638,5.36027-.20674,10.72055-.41348,16.08082-.62023,7.64751-.29496,15.36678-.60019,22.77-2.54027,17.18191-4.50266,31.62925-18.27966,36.94252-35.22844,5.45586-17.4036,1.432-36.76858-7.48217-52.68051-5.45729-9.74135-13.38909-18.94883-24.15369-21.91514-5.78992-1.59548-11.91354-1.25151-17.90868-.89504-10.92434,.64955-21.84868,1.2991-32.77302,1.94865" fill="#ff6363"/><g><path d="M549.66753,583.89733s-19.30716,5.03665-7.55497,5.03665,25.79796,0,25.4906-2.51832c-.30735-2.51832-20.45395-42.81152-22.97228-42.81152-2.51832,0-16.78883,2.51832-10.91274,8.39442,5.87609,5.87609,15.94939,31.89878,15.94939,31.89878Z" fill="#3f3d56"/><g><path d="M554.3491,682.94284c-19.04674-13.96814-8.90806-84.42354-8.46679-87.41552l1.25036,.18391c-.10677,.72578-10.47256,72.69198,7.96443,86.21206l-.748,1.01955Z" fill="#3f3d56"/><path d="M520.98738,676.72805c-14.82414-27.67214-8.99693-49.79603-1.49784-63.48336,8.11316-14.80871,19.90088-23.19713,20.01876-23.28044l.72701,1.03436c-.11603,.08146-11.69391,8.32978-19.66081,22.89595-7.33184,13.40529-13.01834,35.08421,1.52747,62.23608l-1.11459,.59741Z" fill="#3f3d56"/><path d="M583.68139,682.63488l-1.19852-.40362c13.87927-41.25085-16.92063-90.28778-17.23291-90.7778l1.06522-.68011c.079,.12405,7.96998,12.58818,14.0169,30.03339,5.59084,16.12943,10.71016,39.94927,3.34932,61.82814Z" fill="#3f3d56"/><path d="M619.89562,674.11933l-1.26147-.07159c2.15141-37.88858-9.15122-59.29965-19.01218-70.58932-10.64598-12.18826-21.89245-15.49684-22.00478-15.52893l.34561-1.2158c.47398,.13516,11.72107,3.44559,22.61144,15.91342,10.01524,11.4668,21.49747,33.17781,19.32137,71.49222Z" fill="#3f3d56"/><path d="M490.59233,641.17357c-3.2586-14.95313-1.41761-27.49625,5.47234-37.28068,11.3483-16.11523,32.7674-19.06587,32.98217-19.09364l.16293,1.25283c-.20983,.02777-21.09632,2.91669-32.11753,18.57708-6.67271,9.48202-8.44396,21.68694-5.26436,36.27532l-1.23555,.26908Z" fill="#3f3d56"/><path d="M538.3826,584.12038c-.22835-.08702-22.98791-8.61676-33.73016-.09566l-.78503-.98992c11.30572-8.96793,34.00542-.46163,34.96571-.09566l-.45053,1.18124Z" fill="#3f3d56"/><path d="M558.83152,582.29668c-.00432-.08578-.31228-8.64021,9.40858-11.64392l.37276,1.20716c-8.75994,2.70747-8.53283,10.06462-8.51863,10.37628l-1.26271,.06048Z" fill="#3f3d56"/><path d="M568.93378,587.69866l-1.01461-.75355c.11541-.15491,11.73094-15.47154,28.40471-9.70049l-.4135,1.19482c-15.78999-5.46679-26.86675,9.11111-26.9766,9.25922Z" fill="#3f3d56"/></g></g></g><g><path d="M239.75101,576.51319c2.62223-3.82183,7.88228-4.86407,12.49023-4.36476,4.60795,.49931,9.03729,2.19212,13.65995,2.52903,3.80993,.27767,7.62498-.37501,11.44495-.39731,4.96688-.02899,9.93729,1.02469,14.46518,3.0665,14.83035,6.68759,23.26905,23.39183,24.08331,39.63991,.81426,16.24808-4.77022,32.13433-11.52051,46.93624-3.90124,8.55457-8.75088,17.46624-17.16231,21.66721-6.68757,3.34-14.52373,3.12633-21.99341,2.83823-11.1175-.42879-22.23499-.85759-33.35249-1.28638-5.36027-.20674-10.72055-.41348-16.08082-.62023-7.64751-.29496-15.36678-.60019-22.77-2.54027-17.18191-4.50266-31.62925-18.27966-36.94252-35.22844-5.45586-17.4036-1.432-36.76858,7.48217-52.68051,5.45729-9.74135,13.38909-18.94883,24.15369-21.91514,5.78992-1.59548,11.91354-1.25151,17.90868-.89504,10.92434,.64955,21.84868,1.2991,32.77302,1.94865" fill="#ff6363"/><g><path d="M242.5222,583.89733s19.30716,5.03665,7.55497,5.03665-25.79796,0-25.4906-2.51832c.30735-2.51832,20.45395-42.81152,22.97228-42.81152,2.51832,0,16.78883,2.51832,10.91274,8.39442-5.87609,5.87609-15.94939,31.89878-15.94939,31.89878Z" fill="#3f3d56"/><g><path d="M237.84063,682.94284c19.04674-13.96814,8.90806-84.42354,8.46679-87.41552l-1.25036,.18391c.10677,.72578,10.47256,72.69198-7.96443,86.21206l.748,1.01955Z" fill="#3f3d56"/><path d="M271.20235,676.72805c14.82414-27.67214,8.99693-49.79603,1.49784-63.48336-8.11316-14.80871-19.90088-23.19713-20.01876-23.28044l-.72701,1.03436c.11603,.08146,11.69391,8.32978,19.66081,22.89595,7.33184,13.40529,13.01834,35.08421-1.52747,62.23608l1.11459,.59741Z" fill="#3f3d56"/><path d="M208.50834,682.63488l1.19852-.40362c-13.87927-41.25085,16.92063-90.28778,17.23291-90.7778l-1.06522-.68011c-.079,.12405-7.96998,12.58818-14.0169,30.03339-5.59084,16.12943-10.71016,39.94927-3.34932,61.82814Z" fill="#3f3d56"/><path d="M172.29411,674.11933l1.26147-.07159c-2.15141-37.88858,9.15122-59.29965,19.01218-70.58932,10.64598-12.18826,21.89245-15.49684,22.00478-15.52893l-.34561-1.2158c-.47398,.13516-11.72107,3.44559-22.61144,15.91342-10.01524,11.4668-21.49747,33.17781-19.32137,71.49222Z" fill="#3f3d56"/><path d="M301.59739,641.17357c3.2586-14.95313,1.41761-27.49625-5.47234-37.28068-11.3483-16.11523-32.7674-19.06587-32.98217-19.09364l-.16293,1.25283c.20983,.02777,21.09632,2.91669,32.11753,18.57708,6.67271,9.48202,8.44396,21.68694,5.26436,36.27532l1.23555,.26908Z" fill="#3f3d56"/><path d="M253.80713,584.12038c.22835-.08702,22.98791-8.61676,33.73016-.09566l.78503-.98992c-11.30572-8.96793-34.00542-.46163-34.96571-.09566l.45053,1.18124Z" fill="#3f3d56"/><path d="M233.35821,582.29668c.00432-.08578,.31228-8.64021-9.40858-11.64392l-.37276,1.20716c8.75994,2.70747,8.53283,10.06462,8.51863,10.37628l1.26271,.06048Z" fill="#3f3d56"/><path d="M223.25595,587.69866l1.01461-.75355c-.11541-.15491-11.73094-15.47154-28.40471-9.70049l.4135,1.19482c15.78999-5.46679,26.86675,9.11111,26.9766,9.25922Z" fill="#3f3d56"/></g></g></g></g><path d="M0,686.03193c0,.66003,.53003,1.19,1.19006,1.19H730.48004c.65997,0,1.19-.52997,1.19-1.19,0-.65997-.53003-1.19-1.19-1.19H1.19006c-.66003,0-1.19006,.53003-1.19006,1.19Z" fill="#3f3d56"/></svg>